<svg xmlns="http://www.w3.org/2000/svg" width="900" height="500" viewBox="0 0 900 500" role="img" aria-labelledby="title desc">
  <title id="title">pikachu's GitHub Stats</title>
  <desc id="desc">4 个代表项目、201 次提交、5 个公开原创仓库和 0 个 Star。</desc>
  <rect width="900" height="500" rx="28" fill="#FFFDF7"/>
  <rect x="1" y="1" width="898" height="498" rx="27" fill="none" stroke="#E7E5E4" stroke-width="2"/>
  <g font-family="Arial, PingFang SC, Microsoft YaHei, sans-serif" fill="#172033">
    <text x="64" y="92" font-size="37" font-weight="800">pikachu's GitHub Stats</text>
    <g font-size="25" font-weight="700" fill="#475569">
      <text x="116" y="174">Featured Projects</text><text x="440" y="174">4</text>
      <text x="116" y="238">Commits</text><text x="440" y="238">201</text>
      <text x="116" y="302">Public Repositories</text><text x="440" y="302">5</text>
      <text x="116" y="366">Total Stars</text><text x="440" y="366">0</text>
    </g>
    <g fill="none" stroke="#F59E0B" stroke-width="4" stroke-linecap="round" stroke-linejoin="round">
      <path d="m80 151 6 13 14 2-10 10 3 14-13-7-13 7 3-14-10-10 14-2z"/>
      <path d="M80 212a18 18 0 1 1-15 8M80 208v16M70 208h10"/>
      <path d="M67 270v29M93 270v29M67 279h26M80 270v-10M80 299l-8 12M80 299l8 12"/>
      <circle cx="80" cy="356" r="15"/><path d="M80 348v10M80 365h.1"/>
    </g>
    <circle cx="690" cy="256" r="94" fill="none" stroke="#E7E5E4" stroke-width="13"/>
    <path d="M690 162a94 94 0 0 1 79 44" fill="none" stroke="#334155" stroke-width="13" stroke-linecap="round"/>
    <text x="690" y="251" text-anchor="middle" font-size="39" font-weight="800">AI</text>
    <text x="690" y="291" text-anchor="middle" font-size="19" font-weight="700" fill="#64748B">APPLICATIONS</text>
  </g>
</svg>
