<svg xmlns="http://www.w3.org/2000/svg" width="900" height="500" viewBox="0 0 900 500" role="img" aria-labelledby="title desc">
  <title id="title">Most Used Languages</title>
  <desc id="desc">TypeScript 43.1%，Python 27.3%，HTML 24.2%，CSS 2.9%，JavaScript 2.0%，其他 0.5%。</desc>
  <clipPath id="bar"><rect x="66" y="149" width="768" height="24" rx="12"/></clipPath>
  <rect width="900" height="500" rx="28" fill="#FFFDF7"/>
  <rect x="1" y="1" width="898" height="498" rx="27" fill="none" stroke="#E7E5E4" stroke-width="2"/>
  <g font-family="Arial, PingFang SC, Microsoft YaHei, sans-serif" fill="#172033">
    <text x="66" y="92" font-size="37" font-weight="800">Most Used Languages</text>
    <g clip-path="url(#bar)">
      <rect x="66" y="149" width="331" height="24" fill="#3178C6"/><rect x="397" y="149" width="210" height="24" fill="#3572A5"/><rect x="607" y="149" width="186" height="24" fill="#E34C26"/><rect x="793" y="149" width="22" height="24" fill="#563D7C"/><rect x="815" y="149" width="15" height="24" fill="#F1E05A"/><rect x="830" y="149" width="4" height="24" fill="#94A3B8"/>
    </g>
    <g font-size="24" fill="#475569">
      <circle cx="80" cy="245" r="11" fill="#3178C6"/><text x="105" y="253">TypeScript 43.1%</text>
      <circle cx="80" cy="315" r="11" fill="#3572A5"/><text x="105" y="323">Python 27.3%</text>
      <circle cx="80" cy="385" r="11" fill="#E34C26"/><text x="105" y="393">HTML 24.2%</text>
      <circle cx="480" cy="245" r="11" fill="#563D7C"/><text x="505" y="253">CSS 2.9%</text>
      <circle cx="480" cy="315" r="11" fill="#F1E05A"/><text x="505" y="323">JavaScript 2.0%</text>
      <circle cx="480" cy="385" r="11" fill="#94A3B8"/><text x="505" y="393">Other 0.5%</text>
    </g>
  </g>
</svg>
