<svg xmlns="http://www.w3.org/2000/svg" width="1200" height="675" viewBox="0 0 1200 675" role="img" aria-labelledby="t d"><title id="t">图像风格检索与分析</title><desc id="d">CLIP 向量检索、相似图搜索与风格洞察</desc><defs><linearGradient id="g" x2="1" y2="1"><stop stop-color="#FFF8E8"/><stop offset="1" stop-color="#BFDBFE"/></linearGradient><filter id="s"><feDropShadow dx="0" dy="14" stdDeviation="16" flood-opacity=".16"/></filter></defs><rect width="1200" height="675" rx="36" fill="url(#g)"/><circle cx="1050" cy="120" r="190" fill="#2563EB" fill-opacity=".17"/><path d="M0 560C210 470 340 676 560 555s330-112 640-28v148H0z" fill="#FFFDF7" fill-opacity=".86"/><rect x="74" y="62" width="1052" height="546" rx="28" fill="#FFFDF7" fill-opacity=".72" stroke="#111827" stroke-opacity=".1"/><g font-family="Arial, PingFang SC, Microsoft YaHei, sans-serif"><rect x="118" y="108" width="305" height="46" rx="23" fill="#111827"/><text x="142" y="139" fill="#FFFDF7" font-size="23" font-weight="700">image-style-search</text><text x="118" y="246" fill="#111827" font-size="52" font-weight="800">图像风格检索与分析</text><text x="120" y="305" fill="#374151" font-size="27" font-weight="600">CLIP 向量检索 · 相似图搜索 · 风格洞察</text><text x="120" y="507" fill="#6B7280" font-size="22">AI APPLICATION PROJECT</text></g><g filter="url(#s)"><rect x="733" y="183" width="318" height="330" rx="26" fill="#FFFDF7"/><rect x="762" y="216" width="260" height="47" rx="18" fill="#DBEAFE"/><circle cx="793" cy="239" r="12" fill="none" stroke="#2563EB" stroke-width="7"/><path d="m802 249 12 12" fill="none" stroke="#2563EB" stroke-width="7" stroke-linecap="round"/><g fill="#BFDBFE"><rect x="762" y="290" width="72" height="72" rx="14"/><rect x="852" y="290" width="72" height="72" rx="14"/><rect x="942" y="290" width="72" height="72" rx="14"/><rect x="762" y="383" width="72" height="72" rx="14"/><rect x="852" y="383" width="72" height="72" rx="14"/><rect x="942" y="383" width="72" height="72" rx="14"/></g><g fill="#2563EB" fill-opacity=".8"><circle cx="798" cy="326" r="16"/><path d="m865 349 23-37 24 37z"/><rect x="959" y="311" width="38" height="30" rx="8"/><path d="m779 437 18-31 19 31z"/><circle cx="888" cy="417" r="17"/><path d="m960 442 18-39 19 39z"/></g></g><rect x="118" y="545" width="166" height="8" rx="4" fill="#2563EB"/></svg>
