<svg xmlns="http://www.w3.org/2000/svg" width="1200" height="675" viewBox="0 0 1200 675" role="img" aria-labelledby="t d"><title id="t">小红书 AI 内容运营工作台</title><desc id="d">选题、文案、配图与发布工作流</desc><defs><linearGradient id="g" x2="1" y2="1"><stop stop-color="#FFF8E8"/><stop offset="1" stop-color="#FDA4AF"/></linearGradient><filter id="s"><feDropShadow dx="0" dy="14" stdDeviation="16" flood-opacity=".16"/></filter></defs><rect width="1200" height="675" rx="36" fill="url(#g)"/><circle cx="1050" cy="120" r="190" fill="#F43F5E" fill-opacity=".18"/><path d="M0 560C210 470 340 676 560 555s330-112 640-28v148H0z" fill="#FFFDF7" fill-opacity=".86"/><rect x="74" y="62" width="1052" height="546" rx="28" fill="#FFFDF7" fill-opacity=".72" stroke="#111827" stroke-opacity=".1"/><g font-family="Arial, PingFang SC, Microsoft YaHei, sans-serif"><rect x="118" y="108" width="390" height="46" rx="23" fill="#111827"/><text x="142" y="139" fill="#FFFDF7" font-size="23" font-weight="700">rednote-content-ops-studio</text><text x="118" y="246" fill="#111827" font-size="52" font-weight="800">小红书 AI 内容运营工作台</text><text x="120" y="305" fill="#374151" font-size="27" font-weight="600">选题 → 文案 → 配图 → 发布工作流</text><text x="120" y="507" fill="#6B7280" font-size="22">AI APPLICATION PROJECT</text></g><g filter="url(#s)"><rect x="746" y="192" width="286" height="314" rx="23" fill="#FFFDF7"/><rect x="774" y="230" width="230" height="44" rx="13" fill="#FECACA"/><rect x="774" y="295" width="174" height="18" rx="9" fill="#CBD5E1"/><rect x="774" y="330" width="205" height="18" rx="9" fill="#CBD5E1"/><rect x="774" y="385" width="86" height="80" rx="14" fill="#FDA4AF"/><rect x="879" y="385" width="125" height="20" rx="10" fill="#FECDD3"/><path d="M702 321c22 0 40 18 40 40s-18 40-40 40-40-18-40-40 18-40 40-40z" fill="#111827"/><path d="m695 362 14 12 22-27" fill="none" stroke="#FFFDF7" stroke-width="8" stroke-linecap="round"/></g><rect x="118" y="545" width="166" height="8" rx="4" fill="#F43F5E"/></svg>
