<svg xmlns="http://www.w3.org/2000/svg" width="1200" height="675" viewBox="0 0 1200 675" role="img" aria-labelledby="t d"><title id="t">STEM 题目审核系统</title><desc id="d">批量导入、异步 AI 审核与结果追溯</desc><defs><linearGradient id="g" x2="1" y2="1"><stop stop-color="#FFF8E8"/><stop offset="1" stop-color="#A7F3D0"/></linearGradient><filter id="s"><feDropShadow dx="0" dy="14" stdDeviation="16" flood-opacity=".16"/></filter></defs><rect width="1200" height="675" rx="36" fill="url(#g)"/><circle cx="1050" cy="120" r="190" fill="#059669" fill-opacity=".18"/><path d="M0 560C210 470 340 676 560 555s330-112 640-28v148H0z" fill="#FFFDF7" fill-opacity=".86"/><rect x="74" y="62" width="1052" height="546" rx="28" fill="#FFFDF7" fill-opacity=".72" stroke="#111827" stroke-opacity=".1"/><g font-family="Arial, PingFang SC, Microsoft YaHei, sans-serif"><rect x="118" y="108" width="210" height="46" rx="23" fill="#111827"/><text x="142" y="139" fill="#FFFDF7" font-size="23" font-weight="700">stem-system</text><text x="118" y="246" fill="#111827" font-size="52" font-weight="800">STEM 题目审核系统</text><text x="120" y="305" fill="#374151" font-size="27" font-weight="600">批量导入 · 异步 AI 审核 · 结果追溯</text><text x="120" y="507" fill="#6B7280" font-size="22">AI APPLICATION PROJECT</text></g><g filter="url(#s)"><rect x="738" y="182" width="307" height="330" rx="26" fill="#FFFDF7"/><rect x="766" y="215" width="251" height="48" rx="16" fill="#D1FAE5"/><path d="M790 240h78M790 253h46" stroke="#059669" stroke-width="7" stroke-linecap="round"/><rect x="766" y="288" width="251" height="73" rx="15" fill="#ECFDF5"/><path d="m794 327 17 17 34-38" fill="none" stroke="#059669" stroke-width="10" stroke-linecap="round" stroke-linejoin="round"/><rect x="767" y="388" width="70" height="68" rx="14" fill="#A7F3D0"/><text x="802" y="433" text-anchor="middle" fill="#065F46" font-family="Arial, sans-serif" font-size="30" font-weight="800">∑</text><rect x="858" y="400" width="129" height="16" rx="8" fill="#6EE7B7"/><rect x="858" y="432" width="96" height="15" rx="7" fill="#D1D5DB"/><path d="m708 234 16 29 32-4-20 25 11 31-29-13-27 17 3-32-25-20 31-7z" fill="#059669"/></g><rect x="118" y="545" width="166" height="8" rx="4" fill="#059669"/></svg>
