<svg xmlns="http://www.w3.org/2000/svg" width="1200" height="675" viewBox="0 0 1200 675" role="img" aria-labelledby="t d"><title id="t">Vivart AI 创意画布</title><desc id="d">图片与视频生成、编辑与灵感探索</desc><defs><linearGradient id="g" x2="1" y2="1"><stop stop-color="#FFF8E8"/><stop offset="1" stop-color="#C4B5FD"/></linearGradient><filter id="s"><feDropShadow dx="0" dy="14" stdDeviation="16" flood-opacity=".16"/></filter></defs><rect width="1200" height="675" rx="36" fill="url(#g)"/><circle cx="1050" cy="120" r="190" fill="#7C3AED" fill-opacity=".18"/><path d="M0 560C210 470 340 676 560 555s330-112 640-28v148H0z" fill="#FFFDF7" fill-opacity=".86"/><rect x="74" y="62" width="1052" height="546" rx="28" fill="#FFFDF7" fill-opacity=".72" stroke="#111827" stroke-opacity=".1"/><g font-family="Arial, PingFang SC, Microsoft YaHei, sans-serif"><rect x="118" y="108" width="135" height="46" rx="23" fill="#111827"/><text x="142" y="139" fill="#FFFDF7" font-size="23" font-weight="700">Vivart</text><text x="118" y="246" fill="#111827" font-size="52" font-weight="800">Vivart · AI 创意画布</text><text x="120" y="305" fill="#374151" font-size="27" font-weight="600">图片与视频生成 · 编辑 · 灵感探索</text><text x="120" y="507" fill="#6B7280" font-size="22">AI APPLICATION PROJECT</text></g><g filter="url(#s)"><rect x="737" y="183" width="307" height="330" rx="26" fill="#FFFDF7"/><rect x="765" y="214" width="251" height="184" rx="16" fill="#C4B5FD"/><path d="M779 364c41-74 71-60 101-12 25-41 56-51 88 12 17-23 31-30 48-31v51H779z" fill="#4C1D95"/><circle cx="926" cy="270" r="27" fill="#FDE68A"/><rect x="765" y="425" width="66" height="60" rx="13" fill="#DDD6FE"/><path d="m793 439 20 16-20 16z" fill="#7C3AED"/><rect x="853" y="429" width="138" height="14" rx="7" fill="#C4B5FD"/><path d="m704 237 19 24 31-12-14 30 20 25-34-5-20 27-6-34-31-10 29-15z" fill="#7C3AED"/></g><rect x="118" y="545" width="166" height="8" rx="4" fill="#7C3AED"/></svg>
